<?xml version="1.0" encoding="utf-8"?>
<!-- Generator: Adobe Illustrator 16.0.0, SVG Export Plug-In . SVG Version: 6.00 Build 0)  -->
<!DOCTYPE svg PUBLIC "-//W3C//DTD SVG 1.1//EN" "http://www.w3.org/Graphics/SVG/1.1/DTD/svg11.dtd">
<svg version="1.1" id="Ebene_1" xmlns="http://www.w3.org/2000/svg" xmlns:xlink="http://www.w3.org/1999/xlink" x="0px" y="0px"
	 width="260px" height="260px" viewBox="-66.381 -66.328 260 260" enable-background="new -66.381 -66.328 260 260"
	 xml:space="preserve">
<path d="M29.662,49.828c-1.899-0.121-3.676-0.061-5.396-0.355C14.242,48.047,8.13,41.048,6.531,30.486
	C4.272,15.185,10.98,4.327,22.845-4.158c8.363-5.991,18.034-8.72,27.997-10.562c18.981-3.558,36.13,0.478,51.306,12.282
	c10.622,8.242,17.687,19.16,21.653,31.855c4.449,14.111-3.023,27.996-17.317,32.619c-7.478,2.433-15.067,3.736-23.018,2.138
	c-8.72-1.781-17.262,0.178-25.808,1.721c-3.08,0.534-6.343,0.469-9.428,0.3C37.252,65.365,32.333,61.038,29.662,49.828z
	 M14.121,33.041c1.542,6.76,8.542,11.8,14.711,10.141c0.769-0.235,1.899-1.6,1.782-2.312c-0.065-0.887-1.191-1.781-2.021-2.372
	c-0.474-0.296-1.369,0-2.016,0c-1.898-0.062-3.619-0.896-3.38-2.851c0.178-1.303,1.481-3.206,2.667-3.558
	c3.502-1.013,6.882-0.239,9.433,2.667c2.784,3.146,2.967,6.644,1.481,10.501c-2.021,5.283,0.947,11.688,5.752,12.513
	c1.304-7.533,5.518-12.456,13.229-13.703c-0.117-5.039-2.555-6.703-6.582-4.739c-2.138,1.063-3.915,0.829-5.04-1.304
	c-1.012-2.021-0.065-3.559,1.777-4.749c6.169-3.857,14.771-0.591,16.192,6.587c0.656,3.558,1.664,6.048,4.927,7.829
	c2.255,1.242,2.55,3.736,1.13,5.282c-1.664,1.777-3.385,1.478-5.223,0c-2.668-2.198-5.635-2.789-8.842-1.19
	c-3.258,1.6-4.388,4.51-4.627,8.186c2.434,0,4.749,0.417,6.882-0.057c8.068-1.725,16.132-2.489,24.383-1.898
	c4.865,0.296,9.845,0.356,14.711-0.183c5.456-0.591,10.796-1.894,15.245-5.335c-2.377-1.604-5.049-2.85-6.887-4.805
	c-2.011-2.138-4.031-2.668-6.765-2.372c-3.854,0.355-4.505,1.125-3.084,4.744c0.712,1.842,0.773,3.614-1.238,4.57
	c-2.081,0.947-3.802,0.408-4.983-1.725c-2.968-5.34-0.651-11.865,5.096-13.881c1.838-0.652,3.802-0.835,5.34-1.126
	c0.534-2.906,0.834-5.635,1.542-8.303c0.535-2.137,2.194-3.084,4.336-2.433c2.077,0.651,2.49,2.372,2.077,4.327
	c-0.183,0.896-0.539,1.725-0.651,2.555c-0.773,5.335,2.846,10.375,7.946,11.505c2.016,0.417,3.084,0,3.736-2.077
	c1.247-4.214,1.312-8.363-0.057-12.513c-2.729-8.246-6.825-15.779-12.878-22.07c-3.258-3.437-6.994-6.404-10.853-9.845
	c-0.647,3.502-0.891,6.174-1.777,8.664c-0.651,1.903-0.595,3.024,0.596,4.749c5.757,7.773,2.433,18.208-6.465,20.941
	c-2.077,0.647-3.619,0-4.336-1.898c-0.708-1.842-0.174-3.502,1.842-4.393c0.47-0.178,0.952-0.356,1.369-0.595
	c4.327-2.134,5.157-6.761,1.833-10.497c-5.574,3.259-9.728,4.744-13.815,4.393c-1.19-0.122-2.729-0.891-3.263-1.842
	c-0.53-0.83-0.356-2.729,0.352-3.441c0.777-0.83,2.372-1.186,3.68-1.303C82.402,13.29,88.102,5.34,85.425-3.202
	c-0.234-0.83-0.887-1.898-1.659-2.198c-8.603-3.501-17.496-5.335-26.807-3.38c-1.013,6.765,1.186,9.966,7.416,11.035
	c2.077,0.356,3.324,1.542,3.146,3.558c-0.178,2.077-1.547,3.028-3.619,3.028C57.854,8.958,51.98,4.51,50.494-1.664
	c-0.474-1.955-0.534-4.092-0.834-6.287c-7.595,1.542-14.828,3.68-21.649,8.246c0.83,0.413,1.242,0.652,1.721,0.834
	c4.388,2.194,7.707,5.157,9.132,10.201c1.481,5.278,6.999,6.76,11.214,3.263c1.838-1.547,3.676-1.842,5.157,0.113
	c1.425,1.842,0.951,3.915-1.009,5.101c-1.72,1.068-3.68,2.137-5.635,2.433c-2.85,0.413-5.817,0.122-8.663,0.122
	c-0.356,0.946-0.534,1.72-0.891,2.424c-1.008,2.259-3.085,3.263-5.04,2.315c-2.137-1.068-2.315-2.846-1.368-4.805
	c3.323-6.647-1.242-14.829-9.545-15.78c-0.947-0.122-2.077-0.057-2.79,0.352c-4.388,2.789-8.185,12.816-6.943,18.273
	c4.214,0.234,6.23-1.308,6.886-5.518c0.356-2.373,1.482-3.685,3.915-3.38c2.373,0.295,2.968,2.016,2.79,4.154
	c-0.3,3.971-1.899,7.351-5.34,9.428C19.4,31.377,16.671,32.033,14.121,33.041z"/>
<path d="M85.482,92.771c0-4.153,0-7.768,0-12.038c8.78,5.096,17.2,9.909,25.916,14.949c-8.716,5.04-17.019,9.845-25.795,14.885
	c0-4.153,0-7.829,0-11.922c-23.074,0-45.796,0-68.632,0c0-2.138,0-3.857,0-5.874C39.745,92.771,62.464,92.771,85.482,92.771z"/>
<path d="M43.538,131.273c0,4.031,0,7.707,0,12.039c-8.897-5.102-17.261-9.963-25.98-14.95c8.663-4.979,17.026-9.845,25.863-14.945
	c0,4.21,0,7.89,0,11.926c23.074,0,45.728,0,68.571,0c0,2.076,0,3.802,0,5.991C89.279,131.273,66.5,131.273,43.538,131.273z"/>
<path d="M185.904,63.648c-15.119-15.123-30.018-30.017-45.084-45.023c1.72-1.481,3.146-2.667,4.336-3.614
	c15.957,15.893,32.328,32.328,48.464,48.403c-16.37,16.371-32.98,32.98-49.711,49.712c-0.947-1.013-2.134-2.373-3.555-3.919
	C155.478,94.135,170.719,78.895,185.904,63.648z"/>
<path d="M-58.843,64.062c15.484,15.484,30.43,30.43,45.614,45.558c-1.481,1.243-2.907,2.494-4.214,3.559
	c-16.249-16.253-32.624-32.624-48.938-48.938c16.492-16.492,33.102-33.102,49.885-49.885c0.951,1.187,2.137,2.607,3.263,4.093
	C-28.113,33.336-43.298,48.525-58.843,64.062z"/>
</svg>
