<?xml version="1.0" encoding="utf-8"?>
<!-- Generator: Adobe Illustrator 16.0.0, SVG Export Plug-In . SVG Version: 6.00 Build 0)  -->
<!DOCTYPE svg PUBLIC "-//W3C//DTD SVG 1.1//EN" "http://www.w3.org/Graphics/SVG/1.1/DTD/svg11.dtd">
<svg version="1.1" id="Ebene_1" xmlns="http://www.w3.org/2000/svg" xmlns:xlink="http://www.w3.org/1999/xlink" x="0px" y="0px"
	 width="58.44px" height="35.801px" viewBox="34.4 45.772 58.44 35.801" enable-background="new 34.4 45.772 58.44 35.801"
	 xml:space="preserve">
<path d="M55.987,60.56c-0.427-0.027-0.827-0.013-1.213-0.08c-2.253-0.32-3.627-1.893-3.987-4.267c-0.507-3.44,1-5.88,3.667-7.787
	c1.88-1.347,4.054-1.96,6.293-2.374c4.267-0.8,8.121,0.107,11.533,2.76c2.387,1.853,3.975,4.307,4.867,7.16
	c1,3.173-0.68,6.293-3.893,7.333c-1.681,0.547-3.387,0.84-5.174,0.48c-1.96-0.4-3.88,0.04-5.8,0.387
	c-0.693,0.12-1.426,0.106-2.12,0.067C57.693,64.053,56.587,63.08,55.987,60.56z M52.493,56.787c0.347,1.52,1.92,2.653,3.307,2.28
	c0.173-0.053,0.427-0.36,0.4-0.52c-0.014-0.2-0.267-0.4-0.454-0.534c-0.106-0.066-0.307,0-0.453,0c-0.427-0.013-0.813-0.2-0.76-0.64
	c0.04-0.293,0.333-0.72,0.6-0.8c0.787-0.227,1.547-0.053,2.12,0.6c0.626,0.707,0.667,1.493,0.333,2.36
	c-0.454,1.187,0.213,2.627,1.293,2.813c0.293-1.693,1.24-2.8,2.974-3.08c-0.027-1.133-0.574-1.507-1.48-1.066
	c-0.48,0.24-0.88,0.187-1.133-0.293c-0.227-0.454-0.014-0.8,0.4-1.067c1.387-0.867,3.32-0.133,3.64,1.48
	c0.147,0.8,0.374,1.36,1.107,1.76c0.507,0.28,0.573,0.84,0.254,1.187c-0.374,0.4-0.761,0.333-1.174,0
	C62.867,60.773,62.2,60.64,61.48,61c-0.733,0.36-0.987,1.013-1.04,1.84c0.547,0,1.067,0.093,1.547-0.013
	c1.813-0.387,3.626-0.56,5.48-0.427c1.094,0.067,2.213,0.08,3.307-0.04C72,62.227,73.2,61.933,74.2,61.16
	c-0.534-0.36-1.134-0.64-1.547-1.08c-0.453-0.48-0.907-0.6-1.521-0.533c-0.866,0.08-1.013,0.253-0.693,1.066
	c0.16,0.414,0.174,0.813-0.279,1.027c-0.467,0.213-0.854,0.093-1.12-0.387c-0.667-1.2-0.146-2.667,1.146-3.12
	c0.413-0.146,0.854-0.187,1.2-0.253c0.12-0.653,0.187-1.267,0.347-1.867c0.12-0.48,0.493-0.693,0.974-0.546
	c0.467,0.146,0.56,0.533,0.467,0.973c-0.041,0.2-0.121,0.387-0.146,0.573c-0.174,1.2,0.639,2.333,1.786,2.587
	c0.453,0.093,0.693,0,0.84-0.467c0.28-0.947,0.294-1.88-0.013-2.813c-0.613-1.853-1.534-3.546-2.895-4.96
	c-0.732-0.773-1.572-1.44-2.439-2.213c-0.146,0.787-0.2,1.387-0.4,1.947c-0.146,0.427-0.133,0.68,0.134,1.067
	c1.294,1.747,0.547,4.093-1.453,4.707c-0.467,0.146-0.813,0-0.974-0.427c-0.16-0.413-0.04-0.787,0.414-0.987
	c0.105-0.04,0.213-0.08,0.307-0.133c0.973-0.48,1.159-1.52,0.412-2.36c-1.253,0.733-2.186,1.067-3.105,0.987
	c-0.268-0.027-0.613-0.2-0.734-0.414c-0.119-0.187-0.08-0.613,0.08-0.773c0.174-0.187,0.533-0.267,0.827-0.293
	c2.026-0.12,3.307-1.907,2.706-3.827c-0.053-0.187-0.199-0.427-0.373-0.494c-1.934-0.787-3.933-1.2-6.026-0.76
	c-0.227,1.52,0.267,2.24,1.667,2.48c0.467,0.08,0.747,0.347,0.707,0.8c-0.04,0.467-0.347,0.68-0.813,0.68
	c-1.36,0.027-2.68-0.973-3.014-2.36c-0.106-0.44-0.12-0.92-0.187-1.414c-1.707,0.347-3.333,0.827-4.867,1.854
	c0.187,0.093,0.28,0.146,0.387,0.187c0.987,0.493,1.733,1.16,2.053,2.293c0.333,1.187,1.573,1.52,2.52,0.733
	c0.414-0.347,0.827-0.414,1.16,0.026c0.32,0.414,0.213,0.88-0.227,1.147c-0.387,0.24-0.827,0.48-1.267,0.546
	c-0.64,0.093-1.307,0.027-1.947,0.027c-0.08,0.213-0.12,0.387-0.2,0.546c-0.227,0.507-0.693,0.733-1.133,0.52
	c-0.48-0.24-0.52-0.64-0.307-1.08c0.747-1.494-0.28-3.333-2.146-3.547c-0.213-0.027-0.467-0.013-0.627,0.08
	c-0.986,0.626-1.84,2.88-1.56,4.106c0.947,0.053,1.4-0.293,1.547-1.24c0.08-0.533,0.333-0.827,0.88-0.76
	c0.533,0.067,0.667,0.454,0.627,0.934c-0.067,0.893-0.427,1.653-1.2,2.12C53.68,56.413,53.067,56.56,52.493,56.787z"/>
<path d="M68.533,70.213c0-0.934,0-1.746,0-2.706c1.974,1.146,3.867,2.227,5.826,3.36C72.4,72,70.533,73.08,68.561,74.213
	c0-0.934,0-1.76,0-2.68c-5.187,0-10.294,0-15.427,0c0-0.48,0-0.867,0-1.32C58.253,70.213,63.36,70.213,68.533,70.213z"/>
<path d="M59.106,78.867c0,0.906,0,1.732,0,2.706c-2-1.146-3.88-2.239-5.84-3.36c1.947-1.119,3.827-2.213,5.813-3.359
	c0,0.946,0,1.773,0,2.68c5.187,0,10.279,0,15.413,0c0,0.467,0,0.854,0,1.347C69.387,78.867,64.267,78.867,59.106,78.867z"/>
<path d="M91.106,63.667c-3.399-3.4-6.747-6.747-10.134-10.12c0.387-0.333,0.707-0.6,0.975-0.813
	c3.586,3.573,7.266,7.267,10.893,10.88c-3.68,3.68-7.413,7.414-11.174,11.174c-0.213-0.227-0.479-0.533-0.799-0.881
	C84.267,70.52,87.693,67.094,91.106,63.667z"/>
<path d="M36.093,63.76c3.48,3.48,6.84,6.84,10.253,10.24c-0.333,0.279-0.653,0.561-0.947,0.8c-3.653-3.653-7.333-7.333-11-11
	c3.707-3.707,7.44-7.44,11.213-11.213c0.213,0.267,0.48,0.586,0.733,0.92C43,56.854,39.587,60.267,36.093,63.76z"/>
<path fill="#FFFFFF" d="M52.493,56.787c0.574-0.227,1.2-0.374,1.707-0.693c0.76-0.467,1.133-1.227,1.2-2.12
	c0.027-0.466-0.093-0.867-0.626-0.933c-0.547-0.067-0.8,0.227-0.88,0.76c-0.147,0.934-0.6,1.28-1.547,1.24
	c-0.267-1.213,0.573-3.467,1.56-4.107c0.16-0.106,0.427-0.106,0.626-0.08c1.867,0.213,2.894,2.04,2.147,3.546
	c-0.213,0.427-0.173,0.84,0.307,1.08c0.426,0.213,0.907-0.013,1.133-0.52c0.066-0.16,0.12-0.333,0.2-0.547
	c0.64,0,1.307,0.067,1.947-0.026c0.44-0.067,0.88-0.307,1.267-0.547c0.44-0.28,0.547-0.733,0.227-1.146
	c-0.333-0.44-0.747-0.36-1.16-0.027c-0.947,0.787-2.187,0.454-2.52-0.733c-0.32-1.133-1.067-1.8-2.053-2.293
	c-0.094-0.053-0.187-0.093-0.387-0.187c1.533-1.026,3.16-1.506,4.867-1.853c0.066,0.506,0.08,0.973,0.187,1.413
	c0.333,1.387,1.653,2.387,3.013,2.36c0.48-0.014,0.787-0.227,0.813-0.68c0.041-0.467-0.24-0.733-0.706-0.8
	c-1.4-0.24-1.894-0.96-1.667-2.48c2.094-0.44,4.094-0.026,6.027,0.76c0.16,0.067,0.307,0.307,0.373,0.493
	c0.6,1.934-0.68,3.707-2.707,3.827c-0.293,0.014-0.653,0.094-0.826,0.293c-0.146,0.16-0.188,0.587-0.08,0.773
	c0.133,0.213,0.467,0.4,0.732,0.413c0.921,0.08,1.854-0.253,3.107-0.986c0.746,0.84,0.561,1.88-0.414,2.36
	c-0.093,0.053-0.199,0.08-0.307,0.133c-0.453,0.2-0.572,0.573-0.412,0.987c0.159,0.427,0.506,0.573,0.973,0.427
	c2-0.614,2.746-2.96,1.453-4.707c-0.279-0.373-0.293-0.64-0.133-1.066c0.199-0.56,0.253-1.16,0.4-1.947
	c0.866,0.773,1.706,1.44,2.439,2.213c1.347,1.413,2.279,3.106,2.893,4.96c0.307,0.933,0.294,1.867,0.014,2.813
	c-0.133,0.466-0.373,0.573-0.84,0.466c-1.16-0.253-1.96-1.386-1.787-2.586c0.027-0.2,0.107-0.387,0.147-0.573
	c0.093-0.44,0-0.827-0.467-0.974c-0.479-0.146-0.854,0.08-0.974,0.547c-0.146,0.6-0.227,1.213-0.346,1.867
	c-0.361,0.066-0.801,0.106-1.201,0.253c-1.307,0.453-1.826,1.92-1.146,3.12c0.268,0.48,0.654,0.6,1.12,0.387
	c0.454-0.213,0.44-0.613,0.28-1.026c-0.32-0.827-0.174-0.987,0.693-1.067c0.613-0.066,1.066,0.053,1.52,0.533
	c0.414,0.44,1,0.707,1.547,1.08c-1,0.76-2.199,1.054-3.427,1.2c-1.093,0.12-2.213,0.12-3.307,0.04c-1.853-0.12-3.68,0.04-5.48,0.427
	c-0.48,0.106-1,0.013-1.546,0.013c0.066-0.827,0.307-1.48,1.04-1.84c0.72-0.36,1.387-0.213,1.986,0.267
	c0.4,0.333,0.787,0.413,1.173,0c0.32-0.347,0.268-0.907-0.252-1.187c-0.733-0.4-0.96-0.973-1.107-1.76
	c-0.307-1.613-2.24-2.347-3.64-1.48c-0.413,0.253-0.626,0.613-0.4,1.066c0.24,0.48,0.64,0.52,1.133,0.293
	c0.907-0.44,1.454-0.066,1.48,1.067c-1.733,0.293-2.68,1.387-2.973,3.08c-1.08-0.2-1.747-1.64-1.293-2.813
	c0.333-0.867,0.293-1.653-0.333-2.36c-0.574-0.653-1.333-0.827-2.12-0.6c-0.267,0.08-0.56,0.493-0.6,0.8
	c-0.053,0.44,0.333,0.627,0.76,0.64c0.16,0,0.36-0.067,0.454,0c0.187,0.133,0.44,0.333,0.453,0.533c0.014,0.16-0.227,0.48-0.4,0.52
	C54.4,59.44,52.827,58.307,52.493,56.787z"/>
</svg>
